<?xml version="1.0" standalone="no"?>
<!DOCTYPE svg PUBLIC "-//W3C//DTD SVG 20010904//EN"
 "http://www.w3.org/TR/2001/REC-SVG-20010904/DTD/svg10.dtd">
<svg version="1.0" xmlns="http://www.w3.org/2000/svg"
 width="640.000000pt" height="360.000000pt" viewBox="0 0 640.000000 360.000000"
 preserveAspectRatio="xMidYMid meet">

<g transform="translate(0.000000,360.000000) scale(0.100000,-0.100000)"
fill="#000000" stroke="none">
<path d="M113 3592 c-40 -1 -73 -7 -73 -13 0 -6 47 -9 128 -8 70 1 141 -1 157
-3 32 -5 75 9 75 25 0 6 -5 5 -12 -1 -11 -9 -137 -8 -188 1 -8 2 -48 1 -87 -1z"/>
<path d="M7 3583 c-12 -11 -8 -43 6 -44 6 0 36 0 65 1 31 1 52 -3 52 -9 0 -6
12 -11 27 -11 26 0 26 1 7 15 -12 9 -43 14 -86 15 -39 0 -68 4 -68 10 0 6 5
10 10 10 6 0 10 5 10 10 0 11 -13 13 -23 3z"/>
<path d="M190 3551 c0 -6 17 -11 41 -11 22 0 50 -5 62 -11 20 -10 20 -10 7 4
-19 19 -110 34 -110 18z"/>
<path d="M40 3508 c25 -5 53 -9 62 -10 9 -1 16 -5 16 -8 -2 -21 5 -30 22 -30
11 0 20 7 20 15 0 8 -6 15 -14 15 -8 0 -16 7 -20 15 -4 11 -21 15 -68 14 l-63
-2 45 -9z"/>
<path d="M196 3511 c-3 -5 15 -11 42 -13 26 -3 56 -8 67 -13 14 -6 12 -2 -7
13 -27 22 -92 30 -102 13z"/>
<path d="M2 3484 c3 -3 20 -6 37 -6 37 -1 44 -8 30 -28 -8 -12 -12 -12 -16 -2
-7 17 -53 15 -53 -2 0 -11 12 -15 40 -14 22 0 40 4 40 9 0 5 7 6 15 3 8 -4 15
-13 15 -21 0 -8 4 -12 9 -8 12 7 33 -29 24 -39 -3 -3 -16 -6 -27 -6 -18 0 -19
2 -6 11 11 8 1 9 -37 6 -49 -4 -70 5 -40 16 6 3 2 6 -10 6 -24 1 -32 -24 -10
-32 9 -3 9 -8 -2 -21 -19 -22 -6 -33 16 -14 22 18 177 33 167 16 -4 -7 -2 -8
4 -4 17 10 3 36 -20 36 -15 0 -19 5 -15 20 3 11 2 18 -2 15 -5 -2 -26 11 -49
30 -30 27 -49 35 -78 35 -20 0 -35 -3 -32 -6z"/>
<path d="M225 3473 c-37 -9 -34 -18 6 -20 22 0 52 -4 67 -7 l27 -7 -25 21
c-25 20 -38 22 -75 13z"/>
<path d="M1328 3473 c7 -3 16 -2 19 1 4 3 -2 6 -13 5 -11 0 -14 -3 -6 -6z"/>
<path d="M1373 3473 c9 -2 23 -2 30 0 6 3 -1 5 -18 5 -16 0 -22 -2 -12 -5z"/>
<path d="M1288 3463 c7 -3 16 -2 19 1 4 3 -2 6 -13 5 -11 0 -14 -3 -6 -6z"/>
<path d="M1488 3463 c6 -2 18 -2 25 0 6 3 1 5 -13 5 -14 0 -19 -2 -12 -5z"/>
<path d="M223 3425 c-26 -11 -30 -25 -8 -25 8 0 15 5 15 11 0 8 4 8 13 2 6 -5
25 -7 42 -4 l30 6 -35 10 c-24 7 -42 7 -57 0z"/>
<path d="M232 3365 c-11 -13 -9 -15 13 -15 16 0 25 6 25 15 0 19 -21 19 -38 0z"/>
<path d="M1343 3315 c-31 -30 -58 -55 -60 -55 -1 0 -22 14 -47 31 -85 60 -207
49 -282 -26 -91 -92 -125 -232 -104 -431 8 -71 17 -118 26 -125 17 -14 17 -7
-1 61 -15 54 -21 210 -8 197 3 -4 7 -17 9 -29 10 -96 15 -123 25 -134 6 -8 9
-14 5 -14 -20 0 77 -77 122 -97 67 -29 124 -30 164 -1 41 29 128 119 128 132
0 6 4 5 9 -3 23 -36 55 107 49 216 -4 69 -10 90 -42 148 l-37 68 23 25 c13 14
39 40 58 58 19 19 32 34 27 34 -4 0 -33 -25 -64 -55z m-319 -50 c-6 -16 -24
-21 -24 -7 0 11 11 22 21 22 5 0 6 -7 3 -15z m211 -21 c46 -22 80 -67 106
-140 37 -104 13 -223 -61 -307 -18 -21 -42 -43 -53 -48 -19 -11 -19 -11 -1 15
11 14 22 26 27 26 4 0 7 5 7 12 0 6 11 26 25 44 24 32 55 127 55 170 0 43 -23
124 -41 143 -10 10 -16 21 -13 23 10 11 -49 51 -102 69 -47 16 -51 19 -22 15
20 -2 53 -12 73 -22z m-285 -124 c-6 -11 -13 -20 -16 -20 -2 0 0 9 6 20 6 11
13 20 16 20 2 0 0 -9 -6 -20z m83 -27 c-30 -44 -42 -79 -50 -141 -6 -52 -7
-55 -15 -27 -16 57 9 143 54 185 29 27 35 18 11 -17z m161 -2 c6 -10 -16 -21
-41 -21 -13 0 -13 3 -3 15 14 17 36 20 44 6z m-312 -38 c-6 -3 -10 -9 -7 -13
3 -5 1 -11 -5 -15 -5 -3 -10 0 -10 7 0 17 22 40 29 31 3 -3 0 -8 -7 -10z m377
-145 c-12 -27 -26 -48 -31 -48 -5 0 1 18 12 39 11 22 23 66 27 98 l8 58 3 -50
c2 -35 -3 -63 -19 -97z m-352 100 c-3 -7 -5 -2 -5 12 0 14 2 19 5 13 2 -7 2
-19 0 -25z m222 -2 c-12 -26 -29 -35 -29 -16 0 6 5 10 12 10 6 0 9 3 5 6 -6 6
15 35 21 29 1 -1 -3 -14 -9 -29z m61 15 c0 -5 -7 -11 -15 -15 -15 -5 -20 5 -8
17 9 10 23 9 23 -2z m40 -44 c0 -10 -4 -16 -9 -13 -5 3 -8 17 -8 32 0 18 2 22
8 13 5 -8 9 -22 9 -32z m-350 23 c0 -5 -2 -10 -4 -10 -3 0 -8 5 -11 10 -3 6
-1 10 4 10 6 0 11 -4 11 -10z m320 -10 c0 -5 -4 -10 -10 -10 -5 0 -10 5 -10
10 0 6 5 10 10 10 6 0 10 -4 10 -10z m-303 -32 c-3 -8 -6 -5 -6 6 -1 11 2 17
5 13 3 -3 4 -12 1 -19z m240 0 c-3 -8 -6 -5 -6 6 -1 11 2 17 5 13 3 -3 4 -12
1 -19z m-23 -24 c4 -10 1 -14 -6 -12 -15 5 -23 28 -10 28 5 0 13 -7 16 -16z
m92 -20 c-10 -14 -20 -23 -23 -21 -6 6 30 57 36 51 2 -2 -4 -15 -13 -30z m-42
-5 c-8 -13 -21 -11 -27 5 -4 10 0 12 14 9 10 -3 16 -9 13 -14z m-44 -61 c0 -5
-9 -4 -20 2 -11 6 -20 18 -20 27 0 14 2 14 20 -2 11 -10 20 -22 20 -27z m-114
-39 c19 -22 19 -22 -3 -10 -24 12 -39 31 -25 31 5 0 17 -10 28 -21z m47 -96
c-7 -2 -19 -2 -25 0 -7 3 -2 5 12 5 14 0 19 -2 13 -5z"/>
<path d="M24 3316 c-10 -16 -15 -41 -13 -68 2 -24 -1 -50 -5 -57 -9 -14 0 -28
11 -18 3 4 8 33 11 64 6 67 17 81 74 92 l43 9 -52 1 c-45 1 -55 -2 -69 -23z"/>
<path d="M184 3308 c3 -13 6 -32 6 -42 0 -14 3 -17 10 -10 7 7 8 19 1 36 -5
14 -7 29 -4 32 4 3 1 6 -6 6 -9 0 -11 -8 -7 -22z"/>
<path d="M57 3292 c-18 -20 -22 -42 -8 -42 8 0 25 29 23 40 0 3 21 4 46 2 35
-2 43 0 32 7 -24 17 -75 13 -93 -7z"/>
<path d="M253 3276 c-13 -6 -23 -14 -23 -18 0 -14 17 -8 35 12 20 22 20 22
-12 6z"/>
<path d="M1365 3278 c-31 -17 -35 -31 -18 -50 20 -22 46 -23 63 -3 8 9 9 15 2
15 -6 0 -14 -4 -17 -10 -3 -5 -12 -10 -18 -10 -7 0 1 10 16 21 22 17 25 24 16
35 -14 17 -18 17 -44 2z"/>
<path d="M96 3258 c3 -4 -2 -8 -11 -8 -9 0 -13 -5 -10 -11 5 -7 12 -5 23 4 10
9 28 17 42 20 16 3 12 4 -12 4 -20 -1 -34 -5 -32 -9z"/>
<path d="M49 3223 c-5 -45 -6 -93 -1 -93 4 0 8 23 10 50 2 28 1 50 -2 50 -4 0
-6 -3 -7 -7z"/>
<path d="M106 3214 c-5 -14 -4 -15 9 -4 10 8 15 9 15 1 0 -6 5 -11 11 -11 8 0
8 5 -1 15 -16 19 -26 19 -34 -1z"/>
<path d="M171 3194 c0 -11 3 -14 6 -6 3 7 2 16 -1 19 -3 4 -6 -2 -5 -13z"/>
<path d="M116 3168 c7 -11 34 -10 34 1 0 6 -9 9 -19 8 -11 0 -17 -5 -15 -9z"/>
<path d="M1425 3150 c-11 -17 5 -32 21 -19 8 6 14 15 14 20 0 12 -27 11 -35
-1z"/>
<path d="M128 3133 c7 -3 16 -2 19 1 4 3 -2 6 -13 5 -11 0 -14 -3 -6 -6z"/>
<path d="M10 3095 c-10 -13 -9 -15 12 -15 13 0 28 4 34 9 5 5 20 11 34 14 15
2 6 5 -21 6 -31 1 -51 -4 -59 -14z"/>
<path d="M4874 3096 c-40 -18 -50 -34 -28 -43 16 -6 16 -7 1 -12 -15 -6 -15
-9 -2 -34 19 -38 -2 -36 -40 3 -27 29 -68 41 -62 20 3 -14 -241 -123 -260
-116 -11 5 -13 2 -8 -11 4 -10 8 -25 10 -33 3 -8 7 -25 10 -36 9 -31 -12 -40
-38 -16 -65 59 -151 54 -168 -11 -6 -23 -1 -38 30 -82 47 -67 108 -207 124
-283 18 -88 63 -107 117 -51 26 28 34 51 43 119 4 31 32 14 48 -30 20 -54 35
-61 44 -21 5 26 11 31 35 31 33 0 40 -14 33 -67 -5 -36 -2 -42 25 -62 17 -12
36 -38 43 -59 6 -20 29 -72 50 -116 26 -53 37 -87 34 -105 -4 -20 -3 -22 3 -7
8 18 9 18 15 2 10 -24 9 -26 -9 -26 -11 0 -14 -8 -12 -27 2 -20 8 -28 21 -27
11 1 17 -5 17 -17 0 -21 23 -19 89 8 27 10 36 11 42 1 4 -7 5 -16 3 -20 -3 -4
3 -33 12 -63 12 -37 22 -54 31 -51 15 6 18 -10 4 -18 -5 -3 3 -38 18 -76 21
-56 30 -70 43 -66 10 2 21 0 24 -5 3 -5 -2 -9 -10 -9 -9 0 -16 -6 -16 -13 0
-11 95 -215 104 -225 2 -1 17 1 34 4 27 5 32 11 32 35 0 15 -4 30 -10 34 -5 3
-17 33 -26 65 -9 33 -20 60 -24 60 -4 0 -13 19 -20 43 -18 58 -20 60 -35 47
-18 -15 -26 -9 -49 37 -10 21 -22 46 -27 56 -7 12 -5 17 6 18 8 1 20 3 25 4 6
1 12 3 15 4 3 0 -3 10 -14 22 -11 12 -23 19 -28 16 -5 -3 -21 17 -36 44 -23
40 -26 50 -14 55 15 5 -22 92 -144 339 -21 44 -39 94 -39 111 0 30 -25 64 -48
64 -12 0 -27 38 -23 59 2 11 -9 13 -55 7 -32 -4 -56 -5 -53 -3 7 7 174 77 183
77 4 0 6 -18 5 -40 -2 -21 0 -42 4 -46 10 -10 27 42 27 82 0 40 15 45 24 9 4
-14 11 -23 16 -20 6 3 10 -1 10 -9 0 -9 7 -16 16 -16 26 0 91 58 99 87 3 15
11 31 17 34 27 17 -43 216 -110 313 -16 24 -43 46 -70 57 -51 22 -66 23 -108
5z m-70 -134 c13 -26 13 -28 -6 -29 -33 -3 -155 -53 -179 -74 -31 -26 -54 -24
-77 9 -16 22 -17 29 -6 40 7 6 17 12 21 12 12 0 113 42 158 66 46 24 67 18 89
-24z m92 -147 c13 -31 24 -61 24 -68 0 -7 -21 -23 -47 -34 -27 -12 -83 -37
-126 -57 l-78 -36 -39 86 c-22 47 -40 87 -40 89 0 1 35 16 78 33 42 17 99 42
127 55 58 29 58 29 101 -68z m-156 -265 c-8 -5 -19 -10 -25 -10 -5 0 -3 5 5
10 8 5 20 10 25 10 6 0 3 -5 -5 -10z"/>
<path d="M30 3030 c19 -5 40 -5 47 -1 7 3 -9 7 -35 8 -45 1 -45 0 -12 -7z"/>
<path d="M10 3006 c0 -2 7 -6 15 -10 8 -3 15 -1 15 4 0 6 -7 10 -15 10 -8 0
-15 -2 -15 -4z"/>
<path d="M123 3003 c9 -2 23 -2 30 0 6 3 -1 5 -18 5 -16 0 -22 -2 -12 -5z"/>
<path d="M1 2943 c0 -31 2 -34 9 -18 12 28 12 55 0 55 -5 0 -10 -17 -9 -37z"/>
<path d="M45 2970 c-3 -5 -2 -10 4 -10 5 0 13 5 16 10 3 6 2 10 -4 10 -5 0
-13 -4 -16 -10z"/>
<path d="M80 2950 c0 -5 14 -10 31 -10 17 0 28 4 24 10 -3 6 -17 10 -31 10
-13 0 -24 -4 -24 -10z"/>
<path d="M15 2900 c-10 -11 -15 -20 -12 -20 4 0 16 9 27 20 11 11 16 20 12 20
-5 0 -17 -9 -27 -20z"/>
<path d="M65 2820 c-19 -8 -19 -9 3 -9 12 -1 22 4 22 9 0 6 -1 10 -2 9 -2 0
-12 -4 -23 -9z"/>
<path d="M0 2800 c0 -5 5 -10 10 -10 6 0 10 5 10 10 0 6 -4 10 -10 10 -5 0
-10 -4 -10 -10z"/>
<path d="M1321 2784 c0 -11 3 -14 6 -6 3 7 2 16 -1 19 -3 4 -6 -2 -5 -13z"/>
<path d="M70 2779 c0 -5 5 -7 10 -4 6 3 10 8 10 11 0 2 -4 4 -10 4 -5 0 -10
-5 -10 -11z"/>
<path d="M1625 2782 c-21 -7 -32 -32 -15 -32 6 0 10 5 10 10 0 6 5 10 10 10 6
0 10 -6 10 -14 0 -8 14 -28 31 -46 29 -29 32 -30 44 -13 9 12 10 19 3 22 -6 2
-1 12 12 21 23 17 23 18 4 28 -27 14 -85 22 -109 14z m56 -35 c-13 -13 -26 -3
-16 12 3 6 11 8 17 5 6 -4 6 -10 -1 -17z"/>
<path d="M10 2760 c0 -5 7 -10 16 -10 8 0 12 5 9 10 -3 6 -10 10 -16 10 -5 0
-9 -4 -9 -10z"/>
<path d="M903 2745 c-3 -9 -3 -18 -1 -21 3 -3 8 4 11 16 6 23 -1 27 -10 5z"/>
<path d="M28 2723 c7 -3 16 -2 19 1 4 3 -2 6 -13 5 -11 0 -14 -3 -6 -6z"/>
<path d="M7 2680 c-3 -11 -1 -20 4 -20 5 0 9 9 9 20 0 11 -2 20 -4 20 -2 0 -6
-9 -9 -20z"/>
<path d="M1277 2673 c-4 -3 -7 -21 -7 -39 0 -42 28 -61 56 -38 11 9 13 12 6 9
-9 -5 -13 -1 -12 11 5 45 0 64 -18 64 -10 0 -22 -3 -25 -7z"/>
<path d="M993 2637 c-14 -24 -60 -30 -72 -10 -9 15 -10 12 -11 -17 0 -19 4
-49 9 -67 7 -25 6 -35 -6 -45 -23 -18 -34 -55 -44 -137 -9 -76 -2 -101 26
-101 9 0 14 26 17 85 3 51 10 90 17 98 11 10 12 4 7 -28 -17 -121 -18 -165 -4
-166 7 0 24 -2 36 -5 31 -5 112 31 112 50 0 8 3 17 8 19 4 3 7 -41 8 -96 0
-56 1 -145 2 -197 1 -52 2 -104 1 -114 0 -11 8 -26 17 -35 17 -15 17 -15 5 2
-12 15 -12 17 2 11 12 -4 17 5 22 50 5 39 12 56 24 59 9 3 5 5 -10 6 -25 1
-26 4 -32 74 -4 40 -4 83 0 96 6 22 7 23 19 6 11 -15 16 -16 29 -5 11 9 15 9
15 1 0 -9 5 -9 21 -1 19 11 20 10 9 -9 -6 -12 -17 -21 -25 -21 -16 0 -16 -59
0 -61 6 -1 15 -2 21 -3 6 0 24 -16 39 -34 15 -18 33 -31 40 -28 21 8 35 -10
44 -55 8 -42 9 -43 19 -19 9 22 11 23 11 4 1 -11 -4 -25 -10 -31 -6 -6 -9 -21
-7 -34 l5 -24 11 25 c12 25 12 25 7 -5 -11 -57 -10 -69 6 -73 18 -3 24 12 34
93 5 36 4 46 -4 35 -9 -13 -11 -13 -11 2 0 9 -5 18 -10 20 -13 4 5 67 24 82
18 14 32 76 17 76 -14 0 -166 115 -211 160 -49 49 -100 154 -104 213 -2 26
-10 54 -17 63 -12 15 -11 16 7 10 16 -5 25 0 38 18 22 35 21 36 -22 36 -21 0
-55 9 -77 20 -47 24 -42 23 -52 7z m65 -56 c11 -6 10 -10 0 -19 -11 -8 -17 -6
-26 9 -10 15 -10 19 0 19 7 0 19 -4 26 -9z m-151 -153 c-3 -8 -6 -5 -6 6 -1
11 2 17 5 13 3 -3 4 -12 1 -19z m-10 -70 c-2 -13 -4 -5 -4 17 -1 22 1 32 4 23
2 -10 2 -28 0 -40z m265 -84 c-3 -15 -8 -22 -14 -16 -9 9 -1 42 12 42 4 0 5
-12 2 -26z m25 -76 c-3 -8 -6 -5 -6 6 -1 11 2 17 5 13 3 -3 4 -12 1 -19z m93
-138 c0 -5 -5 -10 -11 -10 -5 0 -7 5 -4 10 3 6 8 10 11 10 2 0 4 -4 4 -10z"/>
<path d="M1341 2634 c0 -11 3 -14 6 -6 3 7 2 16 -1 19 -3 4 -6 -2 -5 -13z"/>
<path d="M7 2623 c7 -2 19 -2 26 0 6 3 1 5 -13 5 -14 0 -19 -2 -13 -5z"/>
<path d="M7 2583 c7 -2 19 -2 26 0 6 3 1 5 -13 5 -14 0 -19 -2 -13 -5z"/>
<path d="M7 2553 c7 -2 19 -2 26 0 6 3 1 5 -13 5 -14 0 -19 -2 -13 -5z"/>
<path d="M1267 2443 c-12 -12 -7 -33 8 -33 17 0 19 9 7 28 -5 7 -11 9 -15 5z"/>
<path d="M1785 2431 c-3 -6 0 -22 7 -35 10 -19 17 -23 28 -16 10 7 11 10 3 10
-7 0 -13 5 -13 10 0 6 7 10 16 10 9 0 14 6 12 13 -6 15 -44 21 -53 8z"/>
<path d="M1057 2184 c-3 -3 -4 -11 -3 -17 2 -7 1 -9 -1 -4 -13 22 -23 1 -22
-43 2 -58 18 -68 21 -12 1 36 1 36 5 5 7 -54 23 -37 18 19 -5 54 -8 62 -18 52z"/>
<path d="M1436 2132 c-3 -6 -1 -14 5 -17 15 -10 25 3 12 16 -7 7 -13 7 -17 1z"/>
<path d="M940 2119 c0 -5 5 -7 10 -4 6 3 10 8 10 11 0 2 -4 4 -10 4 -5 0 -10
-5 -10 -11z"/>
<path d="M1147 2100 c-3 -11 -1 -20 4 -20 5 0 9 9 9 20 0 11 -2 20 -4 20 -2 0
-6 -9 -9 -20z"/>
<path d="M1450 2070 c0 -5 7 -10 15 -10 8 0 15 5 15 10 0 6 -7 10 -15 10 -8 0
-15 -4 -15 -10z"/>
<path d="M1441 2024 c0 -11 3 -14 6 -6 3 7 2 16 -1 19 -3 4 -6 -2 -5 -13z"/>
<path d="M1175 2020 c-3 -5 1 -10 9 -10 9 0 16 5 16 10 0 6 -4 10 -9 10 -6 0
-13 -4 -16 -10z"/>
<path d="M5166 2004 c-11 -8 -16 -14 -10 -14 13 0 39 18 34 24 -3 2 -14 -2
-24 -10z"/>
<path d="M5207 2009 c7 -7 15 -10 18 -7 3 3 -2 9 -12 12 -14 6 -15 5 -6 -5z"/>
<path d="M1421 1984 c0 -11 3 -14 6 -6 3 7 2 16 -1 19 -3 4 -6 -2 -5 -13z"/>
<path d="M4845 1960 c-3 -5 3 -10 14 -10 12 0 21 5 21 10 0 6 -6 10 -14 10 -8
0 -18 -4 -21 -10z"/>
<path d="M710 1940 l-55 -7 63 -1 c40 -1 61 2 57 8 -3 6 -7 9 -8 8 -1 -1 -27
-4 -57 -8z"/>
<path d="M1174 1942 c-6 -4 -13 -15 -17 -24 -5 -13 0 -19 19 -24 32 -8 38 -1
30 31 -7 26 -14 30 -32 17z"/>
<path d="M628 1923 c7 -3 16 -2 19 1 4 3 -2 6 -13 5 -11 0 -14 -3 -6 -6z"/>
<path d="M875 1900 c11 -18 63 -41 70 -30 3 5 -11 16 -31 25 -43 18 -47 18
-39 5z"/>
<path d="M1450 1874 c0 -8 5 -12 10 -9 6 4 8 11 5 16 -9 14 -15 11 -15 -7z"/>
<path d="M1056 1822 c-9 -26 -1 -41 13 -26 5 5 5 18 1 29 -7 19 -7 19 -14 -3z"/>
<path d="M620 1807 c0 -3 32 -16 71 -28 92 -29 174 -101 219 -193 36 -73 50
-136 29 -136 -19 0 82 -57 116 -66 l27 -7 -7 44 c-20 129 -89 255 -172 312
-59 41 -137 68 -215 74 -37 3 -68 3 -68 0z"/>
<path d="M1225 1800 c3 -5 11 -10 16 -10 6 0 7 5 4 10 -3 6 -11 10 -16 10 -6
0 -7 -4 -4 -10z"/>
<path d="M1490 1793 c0 -10 -6 -12 -22 -8 -15 5 -20 4 -13 -3 6 -5 21 -13 35
-17 20 -5 22 -4 10 5 -12 10 -11 11 8 7 28 -6 30 18 2 26 -13 3 -20 0 -20 -10z"/>
<path d="M1116 1784 c-8 -21 2 -37 21 -30 8 3 25 -1 38 -10 14 -9 39 -17 57
-18 18 -2 42 -7 52 -11 13 -6 17 -5 13 2 -4 6 -35 21 -69 34 -35 12 -73 29
-84 36 -19 12 -22 12 -28 -3z"/>
<path d="M1546 1765 c-3 -10 1 -15 14 -15 20 0 63 -47 55 -60 -3 -4 4 -10 14
-13 13 -3 22 3 30 20 7 15 7 22 1 18 -5 -3 -10 1 -10 9 0 17 -29 35 -46 29 -6
-2 -17 3 -24 12 -16 19 -26 19 -34 0z"/>
<path d="M1427 1708 c-13 -7 -14 -13 -6 -31 12 -24 94 -97 110 -97 22 0 6 38
-31 70 -22 19 -40 39 -40 44 0 5 13 -3 30 -19 36 -34 47 -30 16 6 -26 30 -56
40 -79 27z"/>
<path d="M750 1695 c0 -8 4 -15 10 -15 5 0 7 7 4 15 -4 8 -8 15 -10 15 -2 0
-4 -7 -4 -15z"/>
<path d="M1668 1685 c-3 -3 11 -23 31 -44 20 -20 42 -46 48 -57 12 -17 12 -17
9 8 -3 14 -13 35 -23 45 -41 39 -60 53 -65 48z"/>
<path d="M4950 1679 c0 -5 5 -7 10 -4 6 3 10 8 10 11 0 2 -4 4 -10 4 -5 0 -10
-5 -10 -11z"/>
<path d="M40 1661 c0 -5 -10 -12 -22 -14 -22 -4 -22 -4 -2 -6 12 0 27 6 34 14
9 10 9 15 1 15 -6 0 -11 -4 -11 -9z"/>
<path d="M1570 1656 c0 -2 12 -12 28 -21 l27 -18 -19 21 c-17 20 -36 29 -36
18z"/>
<path d="M4900 1623 c0 -18 5 -33 10 -33 6 0 10 -6 10 -14 0 -15 27 -29 40
-21 11 7 0 52 -16 66 -8 6 -14 8 -14 3 0 -4 -7 1 -15 12 -14 18 -14 17 -15
-13z"/>
<path d="M4837 1629 c-35 -20 -45 -95 -11 -82 15 5 44 58 44 80 0 16 -9 16
-33 2z"/>
<path d="M271 1597 c-45 -17 -107 -71 -128 -110 -17 -32 -26 -150 -11 -141 4
3 8 22 8 43 0 21 10 58 23 82 19 36 29 44 53 45 17 1 40 7 52 13 25 13 84 15
98 2 5 -5 20 -11 34 -14 18 -3 15 -5 -12 -6 -48 -1 -102 -53 -112 -106 -4 -20
-5 -40 -2 -43 3 -3 6 4 6 16 0 11 5 24 10 27 6 4 10 -8 10 -30 0 -20 5 -46 11
-58 10 -21 9 -21 -10 2 -16 17 -21 19 -21 8 0 -16 66 -87 81 -87 4 0 34 24 66
54 51 47 60 61 70 108 9 43 8 58 -3 81 -8 15 -17 27 -20 27 -3 0 -2 -6 2 -12
5 -10 4 -10 -6 -1 -7 7 -13 24 -14 39 -2 52 -112 88 -185 61z m219 -148 c0 8
2 12 5 10 2 -3 2 -15 -2 -28 -4 -17 -8 -19 -14 -9 -5 7 -9 20 -9 28 0 13 1 13
10 0 8 -12 10 -12 10 -1z m-44 -26 c21 -28 16 -47 -20 -82 -46 -45 -66 -37
-66 27 0 26 5 53 12 60 18 18 59 15 74 -5z"/>
<path d="M4740 1580 c0 -5 5 -10 10 -10 6 0 10 5 10 10 0 6 -4 10 -10 10 -5 0
-10 -4 -10 -10z"/>
<path d="M7 1563 c7 -2 19 -2 26 0 6 3 1 5 -13 5 -14 0 -19 -2 -13 -5z"/>
<path d="M4836 1525 c-18 -14 -18 -15 10 -25 35 -14 89 -1 89 20 0 21 -74 24
-99 5z"/>
<path d="M4428 1490 c-12 -16 -30 -30 -40 -30 -10 0 -18 -7 -18 -15 0 -8 5
-15 10 -15 6 0 10 -5 10 -11 0 -6 11 -25 24 -42 36 -49 37 -54 20 -71 -14 -15
-13 -16 7 -14 19 2 29 -7 50 -46 15 -28 45 -71 68 -97 38 -44 42 -46 95 -48
30 0 57 3 61 8 9 16 -45 153 -90 226 -37 60 -151 185 -169 185 -3 0 -15 -13
-28 -30z"/>
<path d="M195 1490 c-3 -5 -1 -10 4 -10 6 0 11 5 11 10 0 6 -2 10 -4 10 -3 0
-8 -4 -11 -10z"/>
<path d="M4520 1490 c0 -5 5 -10 10 -10 6 0 10 5 10 10 0 6 -4 10 -10 10 -5 0
-10 -4 -10 -10z"/>
<path d="M0 1469 c0 -5 5 -7 10 -4 5 3 10 8 10 11 0 2 -4 4 -10 4 -5 0 -10 -5
-10 -11z"/>
<path d="M4345 1450 c3 -5 8 -10 11 -10 2 0 4 5 4 10 0 6 -5 10 -11 10 -5 0
-7 -4 -4 -10z"/>
<path d="M507 1410 c-10 -36 -9 -39 13 -33 20 5 28 23 11 23 -5 0 -11 8 -13
18 -3 13 -5 11 -11 -8z"/>
<path d="M4296 1365 c-17 -19 -35 -31 -40 -28 -6 3 -1 -4 12 -17 23 -22 24
-22 63 -5 l39 18 -21 23 c-12 12 -18 27 -14 33 14 24 -12 8 -39 -24z"/>
<path d="M5270 1390 c0 -5 5 -10 10 -10 6 0 10 5 10 10 0 6 -4 10 -10 10 -5 0
-10 -4 -10 -10z"/>
<path d="M5220 1382 c0 -12 19 -26 26 -19 2 2 -2 10 -11 17 -9 8 -15 8 -15 2z"/>
<path d="M7 1373 c7 -2 19 -2 26 0 6 3 1 5 -13 5 -14 0 -19 -2 -13 -5z"/>
<path d="M5190 1365 c0 -15 -2 -16 -17 -4 -15 13 -15 12 -2 -9 8 -12 15 -18
17 -13 2 6 10 7 18 4 19 -7 18 11 -1 27 -12 10 -15 9 -15 -5z"/>
<path d="M7 1353 c7 -2 19 -2 26 0 6 3 1 5 -13 5 -14 0 -19 -2 -13 -5z"/>
<path d="M0 1319 c0 -7 10 -9 25 -7 13 3 26 1 29 -4 2 -5 3 -3 2 4 -3 17 -56
23 -56 7z"/>
<path d="M4995 1284 c-44 -25 -87 -52 -95 -60 -12 -12 -9 -14 28 -14 53 0 146
45 161 77 26 57 9 56 -94 -3z"/>
<path d="M121 1308 c-2 -38 79 -158 107 -158 15 0 23 -30 9 -31 -7 0 -3 -4 8
-9 29 -13 29 -13 44 21 12 27 11 32 -5 44 -20 15 -31 18 -50 16 -7 -1 -24 13
-40 31 -15 18 -31 32 -35 31 -5 -2 -5 5 -2 14 5 11 3 14 -6 8 -10 -6 -11 -2
-6 16 4 17 3 20 -3 10 -8 -11 -11 -10 -15 5 -4 16 -5 16 -6 2z"/>
<path d="M4386 1265 c-16 -24 -16 -29 -2 -57 20 -40 20 -41 -4 -28 -28 15 -28
-14 0 -33 11 -8 17 -17 14 -20 -10 -10 45 -20 76 -13 22 4 32 1 39 -12 8 -14
10 -14 11 -2 0 8 -18 39 -40 68 -22 29 -49 69 -59 88 l-19 34 -16 -25z"/>
<path d="M7 1273 c7 -2 19 -2 26 0 6 3 1 5 -13 5 -14 0 -19 -2 -13 -5z"/>
<path d="M180 1274 c0 -5 12 -22 26 -39 l26 -30 -23 35 c-29 45 -29 45 -29 34z"/>
<path d="M7 1223 c7 -2 19 -2 26 0 6 3 1 5 -13 5 -14 0 -19 -2 -13 -5z"/>
<path d="M4 1086 c2 -18 61 -76 76 -76 6 0 8 -4 5 -10 -3 -5 -1 -10 4 -10 21
0 11 19 -19 37 -16 9 -30 21 -30 26 0 4 5 5 10 2 23 -14 8 5 -19 24 -22 16
-29 18 -27 7z"/>
<path d="M4520 1053 l-22 -26 28 7 c38 10 45 18 29 33 -10 9 -17 6 -35 -14z"/>
<path d="M4 1028 c2 -17 44 -60 49 -50 1 4 -9 20 -24 35 -15 15 -26 22 -25 15z"/>
<path d="M4340 970 c-9 -6 -10 -10 -3 -10 6 0 15 5 18 10 8 12 4 12 -15 0z"/>
<path d="M17 950 c13 -11 23 -27 23 -35 0 -9 10 -15 25 -15 29 0 34 17 8 27
-10 4 -25 14 -33 22 -8 9 -22 17 -30 19 -10 2 -7 -4 7 -18z"/>
<path d="M2052 885 c0 -16 2 -22 5 -12 2 9 2 23 0 30 -3 6 -5 -1 -5 -18z"/>
<path d="M390 888 c0 -21 27 -56 99 -131 36 -38 65 -73 64 -77 -2 -5 4 -7 12
-4 10 4 15 0 15 -10 0 -24 30 -66 46 -66 8 0 14 -10 14 -24 0 -14 5 -28 10
-31 6 -4 22 -29 35 -56 27 -52 33 -57 53 -37 9 9 15 10 20 2 15 -24 59 -38
110 -35 53 2 62 -4 40 -28 -11 -11 -10 -13 5 -7 10 3 21 6 23 6 10 0 3 40 -10
53 -23 22 -3 39 48 39 38 1 46 4 46 20 0 11 -5 16 -10 13 -5 -3 -10 -1 -10 4
0 6 7 11 15 11 34 0 10 19 -84 69 -66 34 -108 50 -124 47 -34 -6 -57 10 -27
19 13 4 18 11 13 16 -12 12 -74 19 -67 8 3 -5 -29 -9 -70 -9 l-76 0 0 39 c0
50 25 58 74 25 41 -28 66 -33 46 -9 -7 8 -18 15 -25 15 -7 0 -28 13 -46 30
-78 68 -239 141 -239 108z"/>
<path d="M21 880 c-9 -5 -4 -7 13 -7 29 0 32 2 13 10 -8 3 -20 2 -26 -3z"/>
<path d="M31 833 c-9 -16 -12 -16 -21 -3 -8 13 -10 13 -10 -2 0 -13 8 -18 26
-18 16 0 23 4 18 11 -3 6 0 15 7 20 9 6 10 9 2 9 -7 0 -17 -8 -22 -17z"/>
<path d="M2061 834 c0 -11 3 -14 6 -6 3 7 2 16 -1 19 -3 4 -6 -2 -5 -13z"/>
<path d="M3685 790 c-3 -5 -1 -10 4 -10 6 0 11 5 11 10 0 6 -2 10 -4 10 -3 0
-8 -4 -11 -10z"/>
<path d="M1 768 c1 -16 3 -18 6 -6 2 9 14 19 26 21 18 4 17 5 -5 6 -23 1 -28
-3 -27 -21z"/>
<path d="M30 758 c0 -10 37 -10 43 0 3 4 -6 7 -19 7 -13 0 -24 -3 -24 -7z"/>
<path d="M130 760 c0 -6 7 -10 15 -10 8 0 15 2 15 4 0 2 -7 6 -15 10 -8 3 -15
1 -15 -4z"/>
<path d="M100 739 c0 -5 5 -7 10 -4 6 3 10 8 10 11 0 2 -4 4 -10 4 -5 0 -10
-5 -10 -11z"/>
<path d="M2299 730 c-66 -8 -116 -26 -105 -38 4 -3 12 0 18 6 16 16 45 15 100
-5 l46 -16 8 -66 c4 -36 8 -84 9 -106 1 -22 5 -53 8 -70 l7 -30 -13 27 c-30
63 -83 98 -149 98 -52 0 -107 -33 -108 -64 0 -6 9 0 20 12 43 45 143 41 184
-9 26 -31 31 -43 40 -114 4 -29 3 -36 -5 -25 -8 12 -9 11 -4 -6 6 -21 -14 -46
-70 -89 l-20 -15 20 7 c39 13 66 36 85 72 11 20 19 30 20 23 1 -37 -55 -98
-98 -108 -15 -3 -32 -7 -38 -9 -10 -3 -37 2 -93 16 -8 2 -26 16 -39 32 -13 15
-31 27 -40 27 -13 0 -14 -2 -4 -9 8 -4 14 -12 14 -17 0 -5 4 -8 9 -6 5 1 9 -2
9 -7 0 -17 64 -49 110 -55 50 -7 116 12 136 38 12 17 44 12 44 -7 0 -6 -14
-26 -32 -44 l-32 -33 35 0 c19 0 44 6 54 14 18 13 18 18 7 48 -18 52 -32 208
-32 381 0 143 -2 157 -17 156 -10 -1 -48 -5 -84 -9z"/>
<path d="M0 720 c0 -11 14 -11 50 0 22 7 21 8 -12 9 -21 1 -38 -3 -38 -9z"/>
<path d="M128 703 c6 -2 18 -2 25 0 6 3 1 5 -13 5 -14 0 -19 -2 -12 -5z"/>
<path d="M18 693 c12 -2 30 -2 40 0 9 3 -1 5 -23 4 -22 0 -30 -2 -17 -4z"/>
<path d="M2000 696 c0 -7 50 -13 55 -7 2 4 -10 8 -26 9 -16 1 -29 1 -29 -2z"/>
<path d="M2070 679 c0 -5 5 -7 10 -4 6 3 10 8 10 11 0 2 -4 4 -10 4 -5 0 -10
-5 -10 -11z"/>
<path d="M3795 680 c-3 -6 1 -7 9 -4 18 7 21 14 7 14 -6 0 -13 -4 -16 -10z"/>
<path d="M210 669 c0 -5 5 -7 10 -4 6 3 10 8 10 11 0 2 -4 4 -10 4 -5 0 -10
-5 -10 -11z"/>
<path d="M0 660 c0 -12 47 -14 54 -2 2 4 -9 9 -25 10 -16 1 -29 -2 -29 -8z"/>
<path d="M108 663 c6 -2 18 -2 25 0 6 3 1 5 -13 5 -14 0 -19 -2 -12 -5z"/>
<path d="M3738 650 c-20 -11 -39 -24 -43 -29 -3 -6 15 2 40 15 25 14 45 28 45
30 0 6 -1 5 -42 -16z"/>
<path d="M81 644 c0 -11 3 -14 6 -6 3 7 2 16 -1 19 -3 4 -6 -2 -5 -13z"/>
<path d="M2052 634 c-13 -6 -20 -14 -15 -17 8 -5 50 20 42 26 -2 2 -15 -2 -27
-9z"/>
<path d="M168 633 c6 -2 18 -2 25 0 6 3 1 5 -13 5 -14 0 -19 -2 -12 -5z"/>
<path d="M0 615 c0 -8 2 -15 4 -15 2 0 6 7 10 15 3 8 1 15 -4 15 -6 0 -10 -7
-10 -15z"/>
<path d="M140 621 c0 -6 4 -13 10 -16 6 -3 7 1 4 9 -7 18 -14 21 -14 7z"/>
<path d="M33 598 c-5 -7 -14 -26 -21 -41 -11 -26 -11 -27 8 -17 11 6 18 15 15
20 -3 5 -1 19 5 30 12 22 8 27 -7 8z"/>
<path d="M73 593 c-13 -9 -23 -26 -23 -38 0 -12 -12 -34 -26 -49 -34 -33 -24
-34 12 -1 16 14 29 36 31 48 2 12 11 28 20 34 24 19 12 23 -14 6z"/>
<path d="M3520 534 c-180 -94 -299 -146 -316 -140 -7 3 -20 -6 -29 -20 -9 -14
-20 -22 -25 -19 -5 3 -27 -3 -50 -14 -22 -10 -62 -22 -90 -26 -33 -4 -50 -12
-50 -21 0 -13 -18 -20 -67 -26 -13 -2 -28 5 -36 16 -14 19 -15 19 -22 -5 -4
-13 -17 -35 -28 -49 -21 -26 -21 -19 -2 35 4 12 4 15 -2 8 -5 -7 -27 -19 -48
-28 -22 -9 -50 -21 -62 -27 -17 -8 -26 -8 -37 2 -13 10 -21 8 -45 -13 -18 -15
-49 -27 -78 -31 -72 -10 -83 -15 -76 -32 3 -9 9 -11 12 -6 7 12 101 20 101 10
0 -5 -11 -8 -25 -8 -14 0 -25 -4 -25 -10 0 -5 -12 -11 -27 -11 -17 -1 -21 -3
-11 -6 27 -7 183 25 283 58 50 16 101 31 114 34 13 2 31 11 40 19 9 7 75 40
146 72 208 92 640 316 605 314 -3 -1 -70 -35 -150 -76z"/>
<path d="M97 564 c-26 -35 -17 -38 11 -3 13 16 20 29 15 29 -4 0 -16 -12 -26
-26z"/>
<path d="M166 574 c-5 -14 -4 -15 9 -4 17 14 19 20 6 20 -5 0 -12 -7 -15 -16z"/>
<path d="M435 570 c3 -5 8 -10 11 -10 2 0 4 5 4 10 0 6 -5 10 -11 10 -5 0 -7
-4 -4 -10z"/>
<path d="M190 561 c0 -4 11 -6 25 -3 14 2 25 6 25 8 0 2 -11 4 -25 4 -14 0
-25 -4 -25 -9z"/>
<path d="M3190 550 c0 -5 5 -10 10 -10 6 0 10 5 10 10 0 6 -4 10 -10 10 -5 0
-10 -4 -10 -10z"/>
<path d="M1984 535 c-4 -8 -3 -22 0 -31 3 -9 -5 -26 -19 -42 -14 -15 -25 -39
-25 -54 0 -15 -4 -38 -9 -52 -7 -18 -6 -27 4 -36 7 -6 11 -19 8 -29 -3 -11 2
-21 12 -25 11 -4 14 -2 9 7 -6 9 -4 9 8 -1 11 -9 18 -10 23 -2 4 6 25 -9 52
-37 l45 -48 -35 45 c-19 25 -39 55 -45 66 -13 25 -18 186 -7 227 8 29 -11 40
-21 12z"/>
<path d="M416 531 c-3 -5 1 -11 9 -14 9 -4 12 -1 8 9 -6 16 -10 17 -17 5z"/>
<path d="M1047 529 c7 -7 15 -10 18 -7 3 3 -2 9 -12 12 -14 6 -15 5 -6 -5z"/>
<path d="M156 515 c-3 -9 -14 -15 -23 -14 -19 3 -90 -58 -85 -73 1 -5 -2 -7
-8 -3 -5 3 -10 2 -10 -4 0 -5 -8 -12 -18 -14 -10 -3 -7 -5 10 -6 30 -1 112 65
101 82 -3 6 -1 7 4 4 11 -7 50 30 41 38 -3 3 -8 -1 -12 -10z"/>
<path d="M260 521 c0 -5 11 -16 25 -25 14 -9 23 -22 19 -28 -5 -7 -3 -8 5 -3
9 5 5 15 -15 36 -30 31 -34 34 -34 20z"/>
<path d="M47 490 c-14 -16 -30 -30 -36 -30 -14 0 -14 -17 -1 -25 11 -7 80 59
80 76 0 18 -18 9 -43 -21z"/>
<path d="M149 461 c-22 -21 -39 -36 -39 -34 0 3 -7 0 -15 -7 -8 -7 -13 -16
-10 -19 2 -4 -1 -8 -8 -9 -7 -1 -28 -5 -47 -10 l-35 -10 41 -1 c46 -1 90 26
104 65 5 12 19 24 31 26 12 2 23 11 25 21 3 25 -4 22 -47 -22z"/>
<path d="M2193 466 c-22 -19 -28 -32 -28 -66 0 -71 65 -108 138 -81 37 14 53
70 33 110 -33 63 -94 79 -143 37z m95 -28 c35 -35 -8 -110 -50 -87 -21 11 -26
84 -5 92 22 9 43 7 55 -5z"/>
<path d="M182 432 c-85 -74 -99 -82 -141 -82 -23 0 -41 -4 -41 -10 0 -5 22
-10 49 -10 45 0 52 4 112 60 35 33 67 60 72 60 4 0 7 5 7 10 0 17 -14 11 -58
-28z"/>
<path d="M987 463 c-4 -3 -7 -19 -7 -35 0 -27 3 -29 32 -26 33 3 46 22 30 44
-9 15 -46 26 -55 17z m43 -43 c0 -5 -7 -10 -15 -10 -8 0 -15 5 -15 10 0 6 7
10 15 10 8 0 15 -4 15 -10z"/>
<path d="M219 411 c-13 -16 -28 -30 -34 -31 -5 -1 -9 -6 -7 -12 1 -5 -1 -7 -6
-4 -5 3 -21 -7 -37 -21 -24 -23 -36 -26 -81 -24 -33 1 -54 -2 -54 -8 0 -7 27
-11 71 -11 44 0 68 4 64 10 -3 5 0 7 8 5 14 -6 117 95 117 114 0 19 -16 12
-41 -18z"/>
<path d="M300 420 c0 -5 5 -10 11 -10 5 0 7 5 4 10 -3 6 -8 10 -11 10 -2 0 -4
-4 -4 -10z"/>
<path d="M350 421 c0 -5 7 -12 16 -15 14 -5 15 -4 4 9 -14 17 -20 19 -20 6z"/>
<path d="M1807 423 c-3 -4 -8 -25 -12 -46 -6 -28 -4 -37 6 -37 8 0 29 -14 47
-31 17 -16 32 -25 32 -19 0 7 6 8 19 0 27 -14 36 -13 22 4 -7 8 -24 17 -39 21
-25 6 -62 36 -62 50 0 3 11 3 24 -1 13 -3 26 -1 29 4 9 13 -22 54 -35 46 -6
-4 -14 -1 -18 6 -4 7 -10 8 -13 3z"/>
<path d="M247 374 c-15 -14 -25 -30 -21 -35 3 -5 0 -8 -8 -7 -7 2 -12 -2 -11
-9 2 -7 -4 -10 -12 -7 -18 7 -47 -14 -39 -27 3 -5 2 -9 -3 -8 -33 6 -153 -3
-153 -11 0 -16 167 -13 177 3 4 7 22 23 38 36 17 12 30 30 30 39 0 11 7 16 19
14 14 -3 17 1 12 13 -3 9 -2 13 3 10 5 -3 12 -1 16 5 12 20 -21 9 -48 -16z"/>
<path d="M331 374 c0 -11 3 -14 6 -6 3 7 2 16 -1 19 -3 4 -6 -2 -5 -13z"/>
<path d="M992 340 c0 -14 2 -19 5 -12 2 6 2 18 0 25 -3 6 -5 1 -5 -13z"/>
<path d="M274 327 c-12 -7 -40 -27 -64 -44 -37 -28 -51 -33 -99 -33 -54 0 -55
-1 -29 -14 48 -25 85 -23 123 7 19 15 34 33 32 40 -1 7 4 11 11 9 8 -1 11 2 6
9 -5 8 -2 10 9 6 8 -3 21 1 28 9 16 20 8 26 -17 11z"/>
<path d="M360 313 c0 -22 2 -25 10 -13 13 20 13 40 0 40 -5 0 -10 -12 -10 -27z"/>
<path d="M310 316 c0 -2 7 -6 15 -10 8 -3 15 -1 15 4 0 6 -7 10 -15 10 -8 0
-15 -2 -15 -4z"/>
<path d="M1545 311 c-3 -5 -1 -12 5 -16 5 -3 10 1 10 9 0 18 -6 21 -15 7z"/>
<path d="M1575 310 c-3 -5 1 -10 9 -10 8 0 18 5 21 10 3 6 -1 10 -9 10 -8 0
-18 -4 -21 -10z"/>
<path d="M1694 295 c-11 -8 -14 -15 -9 -16 27 -3 71 4 80 13 7 8 6 9 -2 4 -7
-4 -21 -2 -31 3 -14 7 -24 6 -38 -4z"/>
<path d="M290 290 c-9 -6 -10 -10 -3 -10 6 0 15 5 18 10 8 12 4 12 -15 0z"/>
<path d="M1491 279 c-13 -5 -22 -12 -19 -14 3 -3 20 1 39 9 37 17 19 21 -20 5z"/>
<path d="M267 257 c3 -5 0 -7 -8 -5 -8 3 -29 -8 -47 -23 -20 -18 -44 -29 -62
-29 -25 0 -30 -4 -30 -25 0 -18 -5 -25 -19 -25 -11 0 -23 -4 -26 -10 -3 -6 4
-10 16 -10 24 0 89 -37 89 -51 0 -17 -22 -9 -42 16 -22 28 -41 33 -31 8 6 -14
0 -15 -50 -9 -53 6 -57 5 -57 -14 0 -21 15 -27 25 -10 8 13 102 13 110 0 3 -5
17 -10 30 -10 30 0 112 -19 142 -33 39 -17 116 7 84 27 -14 9 -42 -5 -35 -16
4 -6 -2 -8 -12 -6 -25 4 -30 35 -7 41 10 3 -12 5 -49 6 -59 1 -73 5 -113 33
-30 21 -42 35 -35 42 7 7 16 3 29 -10 43 -41 50 -44 131 -44 103 0 105 15 3
18 -57 2 -81 7 -90 18 -7 9 -17 13 -24 8 -8 -4 -10 -3 -5 5 4 6 0 14 -8 17 -9
3 -16 10 -16 15 0 16 21 9 46 -16 21 -21 34 -25 88 -25 48 0 67 4 77 17 12 14
12 16 0 8 -23 -13 -123 -5 -151 12 -16 11 -20 18 -11 21 7 2 18 -1 24 -7 6 -6
20 -11 31 -10 12 0 15 3 9 6 -18 7 -16 43 2 63 13 14 13 17 0 17 -8 0 -11 -5
-8 -10z"/>
<path d="M423 235 c0 -22 2 -30 4 -17 2 12 2 30 0 40 -3 9 -5 -1 -4 -23z"/>
<path d="M1580 260 c0 -5 7 -10 16 -10 8 0 12 5 9 10 -3 6 -10 10 -16 10 -5 0
-9 -4 -9 -10z"/>
<path d="M297 249 c-20 -12 -14 -29 11 -29 11 0 18 8 19 20 2 22 -4 24 -30 9z"/>
<path d="M380 248 c0 -9 5 -20 10 -23 13 -8 13 5 0 25 -8 13 -10 13 -10 -2z"/>
<path d="M1425 250 c-3 -6 1 -7 9 -4 18 7 21 14 7 14 -6 0 -13 -4 -16 -10z"/>
<path d="M1550 239 c0 -12 25 -39 35 -39 4 0 13 7 21 15 9 8 14 15 12 15 -2 0
-18 4 -36 9 -21 6 -32 6 -32 0z"/>
<path d="M1378 233 c7 -3 16 -2 19 1 4 3 -2 6 -13 5 -11 0 -14 -3 -6 -6z"/>
<path d="M0 213 c0 -9 7 -25 17 -35 15 -17 15 -18 0 -18 -22 0 -22 -16 1 -25
16 -7 15 -8 -3 -15 -14 -6 -6 -9 30 -9 l50 0 -34 14 c-23 11 -31 20 -27 31 3
9 6 24 6 35 0 14 7 19 26 19 14 0 23 4 19 10 -3 6 -24 10 -46 10 -30 0 -39 -4
-39 -17z"/>
<path d="M354 212 c3 -6 0 -13 -6 -16 -7 -3 -4 -5 6 -3 21 2 25 19 5 26 -6 2
-9 -1 -5 -7z"/>
<path d="M1680 205 c0 -9 -7 -27 -16 -40 -9 -13 -13 -29 -9 -35 10 -16 33 -12
39 8 3 10 25 25 49 33 38 14 65 49 38 49 -6 0 -11 -7 -11 -15 0 -8 -4 -15 -10
-15 -5 0 -10 7 -10 15 0 10 -11 15 -35 15 -25 0 -35 -4 -35 -15z"/>
<path d="M1510 196 c0 -8 5 -18 10 -21 6 -3 10 3 10 14 0 12 -4 21 -10 21 -5
0 -10 -6 -10 -14z"/>
<path d="M465 160 c-3 -5 -2 -10 4 -10 5 0 13 5 16 10 3 6 2 10 -4 10 -5 0
-13 -4 -16 -10z"/>
<path d="M2110 80 c0 -44 4 -80 9 -80 6 0 10 36 10 80 0 44 -4 80 -9 80 -6 0
-10 -36 -10 -80z"/>
<path d="M417 120 c-9 -11 -12 -20 -7 -20 6 0 13 7 16 15 4 8 10 12 15 9 5 -3
9 0 9 5 0 17 -14 13 -33 -9z"/>
<path d="M2275 130 c-3 -6 5 -10 19 -10 14 0 28 5 31 10 3 6 -5 10 -19 10 -14
0 -28 -4 -31 -10z"/>
<path d="M457 104 c-18 -15 -42 -24 -65 -25 -20 -1 -29 -3 -18 -6 10 -3 38 -2
62 2 31 4 45 12 49 26 10 30 3 30 -28 3z"/>
<path d="M1640 95 c0 -8 5 -15 10 -15 6 0 10 7 10 15 0 8 -4 15 -10 15 -5 0
-10 -7 -10 -15z"/>
<path d="M1696 101 c-4 -5 -2 -12 3 -15 5 -4 12 -2 15 3 4 5 2 12 -3 15 -5 4
-12 2 -15 -3z"/>
<path d="M6364 94 c-18 -14 -18 -14 6 -3 31 14 36 19 24 19 -6 0 -19 -7 -30
-16z"/>
<path d="M965 91 c-43 -11 -107 -45 -129 -70 l-19 -21 266 0 c147 0 267 2 267
6 0 10 -124 63 -185 79 -62 16 -148 18 -200 6z m128 -18 c-18 -2 -48 -2 -65 0
-18 2 -4 4 32 4 36 0 50 -2 33 -4z m102 -13 c25 -11 -1 -11 -35 0 -20 6 -21 8
-5 8 11 0 29 -3 40 -8z m55 -20 c8 -5 11 -10 5 -10 -5 0 -17 5 -25 10 -8 5
-10 10 -5 10 6 0 17 -5 25 -10z"/>
<path d="M563 60 c3 -11 1 -20 -5 -20 -5 0 -6 -5 -2 -11 9 -15 24 9 17 27 -3
7 5 14 19 17 20 4 19 4 -6 6 -24 1 -27 -2 -23 -19z"/>
<path d="M498 63 c7 -3 16 -2 19 1 4 3 -2 6 -13 5 -11 0 -14 -3 -6 -6z"/>
<path d="M6302 54 c-7 -8 -8 -14 -3 -14 10 0 25 19 20 25 -2 1 -10 -3 -17 -11z"/>
<path d="M6368 63 c6 -2 18 -2 25 0 6 3 1 5 -13 5 -14 0 -19 -2 -12 -5z"/>
<path d="M11 41 c-19 -34 -12 -46 12 -23 25 24 107 32 107 11 0 -7 -12 -9 -33
-5 -20 4 -40 1 -50 -6 -15 -11 -6 -13 53 -16 57 -2 68 0 64 12 -4 11 4 16 28
19 26 4 24 5 -10 4 -24 -1 -46 3 -50 9 -4 6 -30 12 -59 13 -43 2 -53 -1 -62
-18z"/>
<path d="M6217 33 c-4 -3 -7 -11 -7 -17 0 -6 5 -5 12 2 6 6 9 14 7 17 -3 3 -9
2 -12 -2z"/>
<path d="M6372 20 c0 -14 2 -19 5 -12 2 6 2 18 0 25 -3 6 -5 1 -5 -13z"/>
<path d="M404 15 c-17 -14 -11 -15 69 -14 75 1 85 3 70 15 -25 18 -114 18
-139 -1z"/>
<path d="M210 10 c-28 -6 -22 -8 32 -7 37 0 65 4 62 8 -6 10 -44 10 -94 -1z"/>
</g>
</svg>
